# Tiled2Unity generated file. Do not modify by hand.
# Wavefront file for 'Map1_mesh_0011.obj'

# Vertices (Count = 20)
v -624 -2928 0
v -672 -2928 0
v -672 -2880 0
v -624 -2880 0
v -624 -2880 0
v -672 -2880 0
v -672 -2832 0
v -624 -2832 0
v -624 -2832 0
v -672 -2832 0
v -672 -2784 0
v -624 -2784 0
v -624 -2784 0
v -672 -2784 0
v -672 -2736 0
v -624 -2736 0
v -624 -2736 0
v -672 -2736 0
v -672 -2688 0
v -624 -2688 0

# Texture cooridinates (Count = 4)
vt 0 0.5
vt 0.5 0.5
vt 0.5 0.75
vt 0 0.75

# Normal
vn 0 0 -1

# Mesh description
g Map1_mesh_0011

# Faces
f 1/1/1 2/2/1 3/3/1 4/4/1
f 5/1/1 6/2/1 7/3/1 8/4/1
f 9/1/1 10/2/1 11/3/1 12/4/1
f 13/1/1 14/2/1 15/3/1 16/4/1
f 17/1/1 18/2/1 19/3/1 20/4/1

