# Tiled2Unity generated file. Do not modify by hand.
# Wavefront file for 'Map3_mesh_0012.obj'

# Vertices (Count = 16)
v -240 -864 0
v -288 -864 0
v -288 -816 0
v -240 -816 0
v -192 -864 0
v -240 -864 0
v -240 -816 0
v -192 -816 0
v -240 -816 0
v -288 -816 0
v -288 -768 0
v -240 -768 0
v -192 -816 0
v -240 -816 0
v -240 -768 0
v -192 -768 0

# Texture cooridinates (Count = 4)
vt 0 0.5
vt 0.5 0.5
vt 0.5 0.75
vt 0 0.75

# Normal
vn 0 0 -1

# Mesh description
g Map3_mesh_0012

# Faces
f 1/1/1 2/2/1 3/3/1 4/4/1
f 5/1/1 6/2/1 7/3/1 8/4/1
f 9/1/1 10/2/1 11/3/1 12/4/1
f 13/1/1 14/2/1 15/3/1 16/4/1

