# Tiled2Unity generated file. Do not modify by hand.
# Wavefront file for 'Map3_mesh_0006.obj'

# Vertices (Count = 16)
v -336 -480 0
v -384 -480 0
v -384 -432 0
v -336 -432 0
v -288 -480 0
v -336 -480 0
v -336 -432 0
v -288 -432 0
v -336 -432 0
v -384 -432 0
v -384 -384 0
v -336 -384 0
v -288 -432 0
v -336 -432 0
v -336 -384 0
v -288 -384 0

# Texture cooridinates (Count = 4)
vt 0 0.75
vt 0.5 0.75
vt 0.5 1
vt 0 1

# Normal
vn 0 0 -1

# Mesh description
g Map3_mesh_0006

# Faces
f 1/1/1 2/2/1 3/3/1 4/4/1
f 5/1/1 6/2/1 7/3/1 8/4/1
f 9/1/1 10/2/1 11/3/1 12/4/1
f 13/1/1 14/2/1 15/3/1 16/4/1

