# Tiled2Unity generated file. Do not modify by hand.
# Wavefront file for 'Map3_mesh_0015.obj'

# Vertices (Count = 48)
v -720 -288 0
v -768 -288 0
v -768 -240 0
v -720 -240 0
v -576 -288 0
v -624 -288 0
v -624 -240 0
v -576 -240 0
v -720 -240 0
v -768 -240 0
v -768 -192 0
v -720 -192 0
v -672 -240 0
v -720 -240 0
v -720 -192 0
v -672 -192 0
v -624 -240 0
v -672 -240 0
v -672 -192 0
v -624 -192 0
v -576 -240 0
v -624 -240 0
v -624 -192 0
v -576 -192 0
v -576 -192 0
v -624 -192 0
v -624 -144 0
v -576 -144 0
v -576 -144 0
v -624 -144 0
v -624 -96 0
v -576 -96 0
v -624 -96 0
v -672 -96 0
v -672 -48 0
v -624 -48 0
v -576 -96 0
v -624 -96 0
v -624 -48 0
v -576 -48 0
v -624 -48 0
v -672 -48 0
v -672 0 0
v -624 0 0
v -576 -48 0
v -624 -48 0
v -624 0 0
v -576 0 0

# Texture cooridinates (Count = 4)
vt 0 0.5
vt 0.5 0.5
vt 0.5 0.75
vt 0 0.75

# Normal
vn 0 0 -1

# Mesh description
g Map3_mesh_0015

# Faces
f 1/1/1 2/2/1 3/3/1 4/4/1
f 5/1/1 6/2/1 7/3/1 8/4/1
f 9/1/1 10/2/1 11/3/1 12/4/1
f 13/1/1 14/2/1 15/3/1 16/4/1
f 17/1/1 18/2/1 19/3/1 20/4/1
f 21/1/1 22/2/1 23/3/1 24/4/1
f 25/1/1 26/2/1 27/3/1 28/4/1
f 29/1/1 30/2/1 31/3/1 32/4/1
f 33/1/1 34/2/1 35/3/1 36/4/1
f 37/1/1 38/2/1 39/3/1 40/4/1
f 41/1/1 42/2/1 43/3/1 44/4/1
f 45/1/1 46/2/1 47/3/1 48/4/1

