# Tiled2Unity generated file. Do not modify by hand.
# Wavefront file for 'Map3a_mesh_0053.obj'

# Vertices (Count = 36)
v -912 -144 0
v -960 -144 0
v -960 -96 0
v -912 -96 0
v -864 -144 0
v -912 -144 0
v -912 -96 0
v -864 -96 0
v -816 -144 0
v -864 -144 0
v -864 -96 0
v -816 -96 0
v -912 -96 0
v -960 -96 0
v -960 -48 0
v -912 -48 0
v -864 -96 0
v -912 -96 0
v -912 -48 0
v -864 -48 0
v -816 -96 0
v -864 -96 0
v -864 -48 0
v -816 -48 0
v -912 -48 0
v -960 -48 0
v -960 0 0
v -912 0 0
v -864 -48 0
v -912 -48 0
v -912 0 0
v -864 0 0
v -816 -48 0
v -864 -48 0
v -864 0 0
v -816 0 0

# Texture cooridinates (Count = 4)
vt 0 0
vt 0.5 0
vt 0.5 0.25
vt 0 0.25

# Normal
vn 0 0 -1

# Mesh description
g Map3a_mesh_0053

# Faces
f 1/1/1 2/2/1 3/3/1 4/4/1
f 5/1/1 6/2/1 7/3/1 8/4/1
f 9/1/1 10/2/1 11/3/1 12/4/1
f 13/1/1 14/2/1 15/3/1 16/4/1
f 17/1/1 18/2/1 19/3/1 20/4/1
f 21/1/1 22/2/1 23/3/1 24/4/1
f 25/1/1 26/2/1 27/3/1 28/4/1
f 29/1/1 30/2/1 31/3/1 32/4/1
f 33/1/1 34/2/1 35/3/1 36/4/1

