# Tiled2Unity generated file. Do not modify by hand.
# Wavefront file for 'Map3a_mesh_0005.obj'

# Vertices (Count = 12)
v -432 -864 0
v -480 -864 0
v -480 -816 0
v -432 -816 0
v -432 -816 0
v -480 -816 0
v -480 -768 0
v -432 -768 0
v -432 -768 0
v -480 -768 0
v -480 -720 0
v -432 -720 0

# Texture cooridinates (Count = 4)
vt 0 0.75
vt 0.5 0.75
vt 0.5 1
vt 0 1

# Normal
vn 0 0 -1

# Mesh description
g Map3a_mesh_0005

# Faces
f 1/1/1 2/2/1 3/3/1 4/4/1
f 5/1/1 6/2/1 7/3/1 8/4/1
f 9/1/1 10/2/1 11/3/1 12/4/1

