# Tiled2Unity generated file. Do not modify by hand.
# Wavefront file for 'Map3a_mesh_0044.obj'

# Vertices (Count = 24)
v -144 -336 0
v -192 -336 0
v -192 -288 0
v -144 -288 0
v -96 -336 0
v -144 -336 0
v -144 -288 0
v -96 -288 0
v -48 -336 0
v -96 -336 0
v -96 -288 0
v -48 -288 0
v -144 -288 0
v -192 -288 0
v -192 -240 0
v -144 -240 0
v -96 -288 0
v -144 -288 0
v -144 -240 0
v -96 -240 0
v -48 -288 0
v -96 -288 0
v -96 -240 0
v -48 -240 0

# Texture cooridinates (Count = 4)
vt 0 0.25
vt 0.5 0.25
vt 0.5 0.5
vt 0 0.5

# Normal
vn 0 0 -1

# Mesh description
g Map3a_mesh_0044

# Faces
f 1/1/1 2/2/1 3/3/1 4/4/1
f 5/1/1 6/2/1 7/3/1 8/4/1
f 9/1/1 10/2/1 11/3/1 12/4/1
f 13/1/1 14/2/1 15/3/1 16/4/1
f 17/1/1 18/2/1 19/3/1 20/4/1
f 21/1/1 22/2/1 23/3/1 24/4/1

